<?xml version="1.0" encoding="UTF-8"?>
<svg version="1.1" xmlns="http://www.w3.org/2000/svg" width="588" height="115">
<path d="M0 0 C194.04 0 388.08 0 588 0 C588 37.95 588 75.9 588 115 C393.96 115 199.92 115 0 115 C0 77.05 0 39.1 0 0 Z " fill="#503B6D" transform="translate(0,0)"/>
<path d="M0 0 C19 0 19 0 26 4 C31.058502 9.33193454 32.48504514 14.14185994 32.3125 21.3671875 C31.60699045 27.31110544 29.60060475 31.66616271 25 35.5 C16.50671887 39.74664056 10.86914819 38 0 38 C0 25.46 0 12.92 0 0 Z " fill="#02EA9C" transform="translate(56,34)"/>
<path d="M0 0 C3.63 0 7.26 0 11 0 C14.54057496 8.28533807 17.7778391 16.64208767 20.8125 25.125 C21.21919922 26.24648438 21.62589844 27.36796875 22.04492188 28.5234375 C22.42841797 29.59078125 22.81191406 30.658125 23.20703125 31.7578125 C23.5522583 32.7183252 23.89748535 33.67883789 24.25317383 34.66845703 C25 37 25 37 25 39 C22.36 39 19.72 39 17 39 C16.01 36.69 15.02 34.38 14 32 C8.39 31.67 2.78 31.34 -3 31 C-3.495 33.475 -3.495 33.475 -4 36 C-4.33 36.99 -4.66 37.98 -5 39 C-7.64 39 -10.28 39 -13 39 C-11.43025513 30.46096614 -8.41027686 22.53571818 -5.375 14.4375 C-4.85363074 13.03340201 -4.33279306 11.62910651 -3.8125 10.22460938 C-2.5477867 6.81410757 -1.27590226 3.40633417 0 0 Z " fill="#03D8B1" transform="translate(513,34)"/>
<path d="M0 0 C9 0 9 0 11.39868164 2.203125 C11.97996826 3.20859375 12.56125488 4.2140625 13.16015625 5.25 C13.80791016 6.3328125 14.45566406 7.415625 15.12304688 8.53125 C16.08307617 10.24828125 16.08307617 10.24828125 17.0625 12 C17.7410986 13.15803797 18.42271221 14.31431478 19.10742188 15.46875 C20.7679926 18.29525336 22.38798619 21.14552495 24 24 C24.33 16.08 24.66 8.16 25 0 C27.64 0 30.28 0 33 0 C33 12.54 33 25.08 33 38 C24 38 24 38 22.125 36.55859375 C21.75375 35.85863281 21.3825 35.15867188 21 34.4375 C20.54238281 33.63054687 20.08476562 32.82359375 19.61328125 31.9921875 C19.08089844 31.00476563 18.54851562 30.01734375 18 29 C16.8231419 27.02461499 15.62524258 25.0627769 14.42773438 23.09985352 C9.51394628 15.02789256 9.51394628 15.02789256 8 12 C7.67 20.58 7.34 29.16 7 38 C4.69 38 2.38 38 0 38 C0 25.46 0 12.92 0 0 Z " fill="#02BED4" transform="translate(227,34)"/>
<path d="M0 0 C2.375 2.1875 2.375 2.1875 4 4 C3 7 3 7 0.25 8.4375 C-0.8225 8.623125 -1.895 8.80875 -3 9 C-3.763125 8.38125 -4.52625 7.7625 -5.3125 7.125 C-8.68445444 4.45880346 -10.7191945 4.42025633 -14.91015625 4.6015625 C-17.94370671 5.17992165 -19.24958151 6.52024048 -21 9 C-22.96752105 12.9350421 -22.46422595 17.7105522 -22 22 C-20.19881522 25.00197464 -19.09667268 26.45166366 -16 28 C-9.61188894 28.5232779 -9.61188894 28.5232779 -4 26 C-2.71745356 23.46229997 -2.71745356 23.46229997 -2 21 C-5.3 21 -8.6 21 -12 21 C-12 18.69 -12 16.38 -12 14 C-6.06 14 -0.12 14 6 14 C6 20.93 6 27.86 6 35 C4.02 35 2.04 35 0 35 C-0.33 34.01 -0.66 33.02 -1 32 C-2.6396875 33.0209375 -2.6396875 33.0209375 -4.3125 34.0625 C-9.61316954 36.69403807 -14.34211786 36.45873861 -20 35 C-24.70193496 32.77276765 -27.80301837 29.76012687 -30 25 C-31.80539274 19.08797448 -31.81767093 12.54920937 -29.9375 6.6875 C-22.96007521 -2.99086342 -10.65396668 -7.27587968 0 0 Z " fill="#02D2B8" transform="translate(172,37)"/>
<path d="M0 0 C2.64 0 5.28 0 8 0 C8.01458252 0.79696289 8.02916504 1.59392578 8.04418945 2.41503906 C8.11867475 6.02718124 8.21533512 9.63839974 8.3125 13.25 C8.33505859 14.50425781 8.35761719 15.75851563 8.38085938 17.05078125 C8.41630859 18.25605469 8.45175781 19.46132813 8.48828125 20.703125 C8.51446533 21.81333008 8.54064941 22.92353516 8.56762695 24.06738281 C9.0368717 27.2500863 9.85591294 28.65373477 12 31 C15.43793339 30.81870185 15.43793339 30.81870185 19 30 C21.28437843 26.82843922 21.30165919 23.7435876 21.4140625 19.921875 C21.45273437 18.76171875 21.49140625 17.6015625 21.53125 16.40625 C21.57765625 14.59640625 21.57765625 14.59640625 21.625 12.75 C21.66367187 11.52796875 21.70234375 10.3059375 21.7421875 9.046875 C21.83642108 6.0314006 21.92203455 3.01593172 22 0 C24.64 0 27.28 0 30 0 C30.09941096 4.0200263 30.17172063 8.03956963 30.21972656 12.06054688 C30.23975319 13.42623368 30.26698332 14.79183569 30.30175781 16.15722656 C30.35066432 18.12787102 30.37091347 20.09915983 30.390625 22.0703125 C30.41157227 23.25383301 30.43251953 24.43735352 30.45410156 25.65673828 C29.79583293 30.50315259 27.57374513 33.61701185 23.9375 36.8125 C19.52384434 39.51764379 15.01719103 39.59172851 10 39 C6.08137106 37.6862834 3.52904059 35.85660059 1.32299805 32.28466797 C-0.15588457 28.61297823 -0.34533203 26.01501291 -0.29296875 22.0703125 C-0.28330078 20.78125 -0.27363281 19.4921875 -0.26367188 18.1640625 C-0.23861188 16.81770214 -0.21321712 15.47134797 -0.1875 14.125 C-0.17243504 12.75522295 -0.15874982 11.38542998 -0.14648438 10.015625 C-0.11121379 6.67667642 -0.06191896 3.33854325 0 0 Z " fill="#03ABE7" transform="translate(297,34)"/>
<path d="M0 0 C2.49481924 1.74637347 4.01018367 3.10143764 5.5 5.75 C5.5 6.74 5.5 7.73 5.5 8.75 C2.25 9.5 2.25 9.5 -1.5 9.75 C-2.8743291 8.45896357 -4.20896357 7.1243291 -5.5 5.75 C-8.58461971 5.24957854 -8.58461971 5.24957854 -11.5 5.75 C-12.16 6.41 -12.82 7.07 -13.5 7.75 C-13.45519295 9.82567741 -13.45519295 9.82567741 -12.5 11.75 C-10.61218107 12.54487113 -8.71380181 13.324163 -6.76953125 13.96875 C-4.46676999 14.7614389 -2.31763077 15.69176504 -0.125 16.75 C0.52210938 17.059375 1.16921875 17.36875 1.8359375 17.6875 C3.5 18.75 3.5 18.75 5.5 21.75 C6.04563251 24.81702904 6.02337794 27.6798758 5.5 30.75 C2.47617337 34.92999563 -0.50056083 36.65012338 -5.5 37.75 C-11.40683156 38.40631462 -15.6882242 37.10957319 -20.5 33.75 C-22.82875487 30.76628283 -23.5 29.53409145 -23.5 25.75 C-19.54 25.255 -19.54 25.255 -15.5 24.75 C-15.21125 25.389375 -14.9225 26.02875 -14.625 26.6875 C-13.67176549 28.90206079 -13.67176549 28.90206079 -11.5 29.75 C-7.95828022 29.91669318 -7.95828022 29.91669318 -4.5 29.75 C-3.20366379 28.68354885 -3.20366379 28.68354885 -3.4375 26.1875 C-3.458125 25.383125 -3.47875 24.57875 -3.5 23.75 C-4.53640625 23.37488281 -5.5728125 22.99976562 -6.640625 22.61328125 C-8.010717 22.0971507 -9.38049231 21.58017897 -10.75 21.0625 C-11.43191406 20.81822266 -12.11382812 20.57394531 -12.81640625 20.32226562 C-17.28115566 18.6100559 -19.90627979 16.96152044 -22.5 12.75 C-23.09853879 8.56022845 -22.99755673 6.54964475 -20.75 2.9375 C-14.9893516 -2.66313039 -7.32671676 -2.61668456 0 0 Z " fill="#03A0F4" transform="translate(361.5,35.25)"/>
<path d="M0 0 C2.31 0 4.62 0 7 0 C7.01981934 0.76666992 7.03963867 1.53333984 7.06005859 2.32324219 C7.15535446 5.79917219 7.26501598 9.27450506 7.375 12.75 C7.4059375 13.9565625 7.436875 15.163125 7.46875 16.40625 C7.50742188 17.56640625 7.54609375 18.7265625 7.5859375 19.921875 C7.6173584 20.99018555 7.6487793 22.05849609 7.68115234 23.15917969 C7.9978058 25.98045048 8.35126276 27.69595213 10 30 C13.06175236 30.65608979 15.87221384 31 19 31 C20.1007076 27.6978772 20.20627072 25.05916721 20.31640625 21.58203125 C20.35830078 20.32841797 20.40019531 19.07480469 20.44335938 17.78320312 C20.48267578 16.47287109 20.52199219 15.16253906 20.5625 13.8125 C20.60570992 12.47720022 20.649325 11.14191348 20.69335938 9.80664062 C20.79956502 6.53786703 20.90160997 3.26901667 21 0 C23.64 0 26.28 0 29 0 C29.07455949 4.02009457 29.12879358 8.03991733 29.16479492 12.06054688 C29.17981428 13.42617816 29.20023608 14.79176176 29.22631836 16.15722656 C29.26300137 18.12803905 29.27818551 20.09921408 29.29296875 22.0703125 C29.3086792 23.25383301 29.32438965 24.43735352 29.34057617 25.65673828 C28.8974538 30.00664345 27.6722553 33.6132517 24.23828125 36.4609375 C19.20047782 38.85210586 15.58127596 39.63014406 10 39 C6.38495966 37.56762553 3.43632544 36.07746372 1 33 C-0.15927528 29.52217417 -0.11313066 26.81196743 -0.09765625 23.14453125 C-0.0962413 22.48289474 -0.09482635 21.82125824 -0.09336853 21.13957214 C-0.08777996 19.03050172 -0.07522965 16.92153823 -0.0625 14.8125 C-0.05748352 13.38086091 -0.05292087 11.94922015 -0.04882812 10.51757812 C-0.0378143 7.01168412 -0.02055755 3.5058525 0 0 Z " fill="#02DFAB" transform="translate(100,34)"/>
<path d="M0 0 C7.26 0 14.52 0 22 0 C22 2.31 22 4.62 22 7 C17.38 7 12.76 7 8 7 C8 9.97 8 12.94 8 16 C12.29 16 16.58 16 21 16 C21 18.31 21 20.62 21 23 C16.71 23 12.42 23 8 23 C8 25.64 8 28.28 8 31 C12.62 31 17.24 31 22 31 C22 33.31 22 35.62 22 38 C14.74 38 7.48 38 0 38 C0 25.46 0 12.92 0 0 Z " fill="#03C6C4" transform="translate(191,34)"/>
<path d="M0 0 C7.26 0 14.52 0 22 0 C22 2.31 22 4.62 22 7 C17.38 7 12.76 7 8 7 C8 9.97 8 12.94 8 16 C11.96 16 15.92 16 20 16 C20 18.31 20 20.62 20 23 C16.04 23 12.08 23 8 23 C8 25.64 8 28.28 8 31 C12.62 31 17.24 31 22 31 C22 33.31 22 35.62 22 38 C14.74 38 7.48 38 0 38 C0 25.46 0 12.92 0 0 Z " fill="#01F790" transform="translate(21,34)"/>
<path d="M0 0 C9.22222222 0 9.22222222 0 13 3 C15.28219901 6.42329851 15.29741163 7.84137668 15.3125 11.875 C15.32925781 12.90367188 15.34601563 13.93234375 15.36328125 14.9921875 C14.95005429 18.41352899 14.08545597 20.27474372 12 23 C9 24 9 24 0 24 C0 16.08 0 8.16 0 0 Z " fill="#463266" transform="translate(64,41)"/>
<path d="M0 0 C2.64 0 5.28 0 8 0 C8 12.87 8 25.74 8 39 C5.36 39 2.72 39 0 39 C0 26.13 0 13.26 0 0 Z " fill="#02A5F3" transform="translate(549,34)"/>
<path d="M0 0 C2.64 0 5.28 0 8 0 C8 12.54 8 25.08 8 38 C5.36 38 2.72 38 0 38 C0 25.46 0 12.92 0 0 Z " fill="#01B6DF" transform="translate(275,34)"/>
<path d="M0 0 C14.19 0 28.38 0 43 0 C43.495 1.98 43.495 1.98 44 4 C26.675 4.495 26.675 4.495 9 5 C12.63 7.64 16.26 10.28 20 13 C19.67 14.32 19.34 15.64 19 17 C13.99997395 14.27387115 9.52712566 11.27659294 5.0625 7.75 C4.47404297 7.29109375 3.88558594 6.8321875 3.27929688 6.359375 C1.84971658 5.24360502 0.42439577 4.12238102 -1 3 C-0.67 2.01 -0.34 1.02 0 0 Z " fill="#0CC1B3" transform="translate(394,42)"/>
<path d="M0 0 C3.53934223 1.28646924 6.3514961 2.79352101 9.36328125 5.046875 C10.16830078 5.645 10.97332031 6.243125 11.80273438 6.859375 C12.63095703 7.48328125 13.45917969 8.1071875 14.3125 8.75 C15.12912109 9.3584375 15.94574219 9.966875 16.78710938 10.59375 C19.19573206 12.3901411 21.59853345 14.19405742 24 16 C25.53503768 17.15119979 27.07018478 18.30225369 28.60546875 19.453125 C29.73701853 20.30203087 30.86854502 21.15096779 32 22 C31.6390625 20.87980469 31.278125 19.75960937 30.90625 18.60546875 C30.4372741 17.13288442 29.9685365 15.66022419 29.5 14.1875 C29.14228516 13.08051758 29.14228516 13.08051758 28.77734375 11.95117188 C27.80059864 8.86744804 27 6.25504191 27 3 C27.99 2.67 28.98 2.34 30 2 C31.34350008 5.74643573 32.67301661 9.49768549 34 13.25 C34.3815625 14.31347656 34.763125 15.37695312 35.15625 16.47265625 C35.5171875 17.49746094 35.878125 18.52226563 36.25 19.578125 C36.58515625 20.52075195 36.9203125 21.46337891 37.265625 22.43457031 C38 25 38 25 38 29 C33.8897731 28.4547287 31.55228338 27.22897966 28.3046875 24.68359375 C26.99032715 23.66604004 26.99032715 23.66604004 25.64941406 22.62792969 C24.73385742 21.90508789 23.81830078 21.18224609 22.875 20.4375 C20.99309393 18.97149193 19.11028977 17.50663596 17.2265625 16.04296875 C16.32583008 15.34091309 15.42509766 14.63885742 14.49707031 13.91552734 C10.68447656 10.99084895 6.75209245 8.26084209 2.765625 5.578125 C0.74230136 3.76966759 0.34612845 2.65365148 0 0 Z " fill="#06BACC" transform="translate(422,63)"/>
<path d="M0 0 C0.99 0.33 1.98 0.66 3 1 C4.19566419 3.74566974 5.19653162 6.40076647 6.13671875 9.234375 C6.42102249 10.06455139 6.70532623 10.89472778 6.99824524 11.75006104 C7.59803625 13.51015277 8.19196851 15.27225012 8.78051758 17.03613281 C9.68076529 19.72984844 10.60147965 22.41588372 11.52539062 25.1015625 C12.10540381 26.812081 12.68421911 28.52300625 13.26171875 30.234375 C13.53666672 31.03663513 13.81161469 31.83889526 14.09489441 32.66546631 C15.38221375 36.55528412 16.36442331 39.84318289 16 44 C15.01 44 14.02 44 13 44 C11.56162584 39.85446944 10.12446045 35.70852078 8.6875 31.5625 C8.28337891 30.39783203 7.87925781 29.23316406 7.46289062 28.03320312 C7.06650391 26.88916016 6.67011719 25.74511719 6.26171875 24.56640625 C5.90037842 23.52427979 5.53903809 22.48215332 5.16674805 21.40844727 C3.75370058 17.28047999 2.37973972 13.13921916 1 9 C-0.98 14.94 -2.96 20.88 -5 27 C-5.99 27 -6.98 27 -8 27 C-7.5152625 21.54670307 -5.99155047 16.91155471 -4.0546875 11.80078125 C-2.58753963 7.90468856 -1.28988542 3.95760299 0 0 Z " fill="#08C3BE" transform="translate(432,12)"/>
<path d="M0 0 C8.25 0 16.5 0 25 0 C23.78284411 4.86862356 22.58513756 5.45227883 18.625 8.375 C17.78606201 8.99725464 17.78606201 8.99725464 16.93017578 9.63208008 C15.67189692 10.5638948 14.41045373 11.49144627 13.14648438 12.41552734 C10.74939979 14.18498582 8.38256639 15.9912193 6.015625 17.80078125 C4.30257866 19.09700904 2.58903948 20.39258577 0.875 21.6875 C0.04564941 22.32413574 -0.78370117 22.96077148 -1.63818359 23.61669922 C-2.42016113 24.20080566 -3.20213867 24.78491211 -4.0078125 25.38671875 C-4.70535645 25.91483154 -5.40290039 26.44294434 -6.12158203 26.98706055 C-7.05139893 27.48846558 -7.05139893 27.48846558 -8 28 C-8.99 27.67 -9.98 27.34 -11 27 C-9.63012487 23.76612549 -8.25811502 22.16578129 -5.3671875 20.1953125 C-4.64273437 19.69386719 -3.91828125 19.19242188 -3.171875 18.67578125 C-2.41390625 18.16402344 -1.6559375 17.65226562 -0.875 17.125 C0.60760462 16.10798525 2.08937844 15.08975831 3.5703125 14.0703125 C4.29895508 13.57047852 5.02759766 13.07064453 5.77832031 12.55566406 C9.2520875 10.12326356 12.62330815 7.5650607 16 5 C11.05 4.67 6.1 4.34 1 4 C0.67 2.68 0.34 1.36 0 0 Z " fill="#09BCC1" transform="translate(448,42)"/>
<path d="M0 0 C0.99 0 1.98 0 3 0 C1.5549223 7.1954387 -0.55808597 14.00008919 -2.9375 20.9375 C-5.42922491 28.25549729 -7.83872284 35.57684025 -10 43 C-10.99 43 -11.98 43 -13 43 C-12.43597001 37.30831605 -11.33133408 32.23480136 -9.53125 26.81640625 C-9.29088013 26.07543198 -9.05051025 25.3344577 -8.80285645 24.57102966 C-8.29856766 23.02125837 -7.79083583 21.47260349 -7.27978516 19.92504883 C-6.49487966 17.54698667 -5.72122789 15.16547959 -4.94921875 12.78320312 C-4.4563757 11.27322632 -3.96290882 9.76345296 -3.46875 8.25390625 C-3.23643677 7.54045547 -3.00412354 6.8270047 -2.76477051 6.0919342 C-1.11651195 1.11651195 -1.11651195 1.11651195 0 0 Z " fill="#09A6DC" transform="translate(420,49)"/>
<path d="M0 0 C2.37682369 2.13714399 3.59931002 3.93778054 4.6875 6.9375 C5.06455078 7.94103516 5.06455078 7.94103516 5.44921875 8.96484375 C6 11 6 11 6 15 C2.37 15 -1.26 15 -5 15 C-1.85714286 4.28571429 -1.85714286 4.28571429 0 0 Z " fill="#554D78" transform="translate(518,43)"/>
<path d="M0 0 C0.66 0 1.32 0 2 0 C3.00935129 2.8928729 4.00768744 5.78878515 5 8.6875 C5.28617187 9.50412109 5.57234375 10.32074219 5.8671875 11.16210938 C8.42266949 18.67644333 8.42266949 18.67644333 8 23 C7.01 23 6.02 23 5 23 C3.96419671 20.10875777 2.9461498 17.21320686 1.9375 14.3125 C1.64294922 13.49587891 1.34839844 12.67925781 1.04492188 11.83789062 C-1.54098252 4.32355667 -1.54098252 4.32355667 0 0 Z " fill="#09ABD6" transform="translate(440,33)"/>
<path d="M0 0 C0.33 0 0.66 0 1 0 C2.29271095 5.89073674 1.53786235 9.80023878 -0.4375 15.4375 C-0.80198242 16.53481445 -0.80198242 16.53481445 -1.17382812 17.65429688 C-1.76928729 19.44067437 -2.38280164 21.22101648 -3 23 C-3.99 23 -4.98 23 -6 23 C-5.50387003 14.89654389 -2.679915 7.59474067 0 0 Z " fill="#07D2AC" transform="translate(413,69)"/>
<path d="M0 0 C0.66 0.66 1.32 1.32 2 2 C1.86328125 3.84765625 1.86328125 3.84765625 1.3125 6.0625 C1.11527344 6.8565625 0.91804688 7.650625 0.71484375 8.46875 C-0.38454395 12.36166381 -1.64823928 16.18803476 -3 20 C-3.99 20 -4.98 20 -6 20 C-5.50104522 12.84831485 -2.68436185 6.58708719 0 0 Z " fill="#03E2A6" transform="translate(430,19)"/>
<path d="M0 0 C0.84884766 0.34417969 0.84884766 0.34417969 1.71484375 0.6953125 C-2.55103499 5.23640922 -7.32127953 8.94266496 -12.28515625 12.6953125 C-12.94515625 12.3653125 -13.60515625 12.0353125 -14.28515625 11.6953125 C-12.07318801 6.82898236 -5.865765 -0.782102 0 0 Z " fill="#09D0AA" transform="translate(428.28515625,75.3046875)"/>
<path d="M0 0 C0.33 0 0.66 0 1 0 C2.27170568 6.474138 1.68902652 9.97658059 -1 16 C-1.33 16 -1.66 16 -2 16 C-2.20413361 10.26157749 -2.27141454 5.39460953 0 0 Z " fill="#08BEC2" transform="translate(416,59)"/>
<path d="M0 0 C3 2 3 2 3.51171875 3.9453125 C3.67447917 5.96354167 3.83723958 7.98177083 4 10 C3.01 10 2.02 10 1 10 C0.63883954 8.5225254 0.28624952 7.04295325 -0.0625 5.5625 C-0.25972656 4.73878906 -0.45695312 3.91507813 -0.66015625 3.06640625 C-0.82837891 2.04353516 -0.82837891 2.04353516 -1 1 C-0.67 0.67 -0.34 0.34 0 0 Z " fill="#07A2E6" transform="translate(444,46)"/>
<path d="M0 0 C0.598125 0.20625 1.19625 0.4125 1.8125 0.625 C0.1625 2.275 -1.4875 3.925 -3.1875 5.625 C-4.1775 5.295 -5.1675 4.965 -6.1875 4.625 C-5.03076352 1.15479057 -3.91311293 -0.67081936 0 0 Z " fill="#06B0D7" transform="translate(428.1875,75.375)"/>
<path d="M0 0 C-0.33 2.64 -0.66 5.28 -1 8 C-1.99 8 -2.98 8 -4 8 C-3.74438677 5.6568787 -3.40729228 3.32156597 -3 1 C-1 0 -1 0 0 0 Z " fill="#06E698" transform="translate(428,31)"/>
<path d="M0 0 C0.33 0 0.66 0 1 0 C1 2.97 1 5.94 1 9 C0.01 9 -0.98 9 -2 9 C-1.125 1.125 -1.125 1.125 0 0 Z " fill="#06E49A" transform="translate(409,83)"/>
<path d="M0 0 C0.66 0 1.32 0 2 0 C1.67 2.31 1.34 4.62 1 7 C0.34 7 -0.32 7 -1 7 C-1.04254356 5.00045254 -1.04080783 2.99958364 -1 1 C-0.67 0.67 -0.34 0.34 0 0 Z " fill="#02BAD9" transform="translate(418,57)"/>
</svg>
